PathFileType	4	(X/Y/Z)	/Users/whiskymisky/masters/Sports2D_results/trial_4_Sports2D/trial_4_Sports2D_px_person00.trc
DataRate	CameraRate	NumFrames	NumMarkers	Units	OrigDataRate	OrigDataStartFrame	OrigNumFrames
50	50	10	22	m	50	823	1098
Frame#	Time	Hip			RHip			RKnee			RAnkle			RBigToe			RSmallToe			RHeel			LHip			LKnee			LAnkle			LBigToe			LSmallToe			LHeel			Neck			Head			Nose			RShoulder			RElbow			RWrist			LShoulder			LElbow			LWrist		
		X1	Y1	Z1	X2	Y2	Z2	X3	Y3	Z3	X4	Y4	Z4	X5	Y5	Z5	X6	Y6	Z6	X7	Y7	Z7	X8	Y8	Z8	X9	Y9	Z9	X10	Y10	Z10	X11	Y11	Z11	X12	Y12	Z12	X13	Y13	Z13	X14	Y14	Z14	X15	Y15	Z15	X16	Y16	Z16	X17	Y17	Z17	X18	Y18	Z18	X19	Y19	Z19	X20	Y20	Z20	X21	Y21	Z21	X22	Y22	Z22
823	16.46	951.8089525104504	619.475729492087	0.0	918.8606489613131	632.2737976994506	0.0	888.6207045361809	766.5956181285676	0.0	869.8517113126045	878.777526201189	0.0	867.5352595323568	914.2406856373447	0.0	848.649300870008	909.4410089671144	0.0	874.8986724964922	889.9213411262381	0.0	984.232345474115	633.3223301576753	0.0	1004.0751890012011	762.8162264871016	0.0	1022.9047954865716	864.9723235306467	0.0	1035.4357044693152	898.9678510576778	0.0	1049.9780664861798	892.2495211778258	0.0	1017.947254994329	877.3376389480568	0.0	953.2513602229085	444.3865963846785	0.0	962.4963937845198	364.352892034709	0.0	977.5080791299501	409.10718178136534	0.0	899.2921254709288	465.71605589523324	0.0	823.7212380280823	489.64119996737156	0.0	800.499750136631	425.96448698558964	0.0	1008.72472860661	464.1143590026538	0.0	1082.2513609723046	481.5828215993431	0.0	1074.1863637487452	411.42123386015487	0.0
824	16.48	952.1655058990557	619.3807242570967	0.0	918.882072067335	632.2092207049917	0.0	888.5448493038155	766.702777354271	0.0	870.0241180145016	878.5777082923329	0.0	867.4860032623712	914.2760176877762	0.0	848.700854580879	909.301837934413	0.0	875.0210846403024	889.7592656013946	0.0	984.2997909803835	633.5672093147601	0.0	1004.2986861842119	762.8679714405157	0.0	1022.9108087941307	864.9393790951713	0.0	1035.3642522451726	899.1803363480781	0.0	1049.922699076357	892.3636772140173	0.0	1017.8535177285003	877.3288630680659	0.0	953.0405958490132	444.65980161314275	0.0	962.4976075489903	364.5577014200228	0.0	977.5251358717518	409.3558843104088	0.0	899.199309987317	465.65713995254964	0.0	823.590323219261	490.00370195549704	0.0	800.2623646354641	426.19104114600793	0.0	1008.7823635691456	464.2185989999181	0.0	1082.4209756123312	481.93323054546835	0.0	1073.4422227671043	411.3316422215719	0.0
825	16.5	952.4405234269444	619.2010574399449	0.0	918.9247694179127	632.0654935389927	0.0	888.5819108219109	766.717675142885	0.0	870.1844107760252	878.4073553815513	0.0	867.478400434859	914.3919458211263	0.0	848.6695160681926	909.3225051069724	0.0	875.2478205838657	889.7584847992568	0.0	984.4196301223137	633.6482463164656	0.0	1004.4923747781189	763.0490242193421	0.0	1022.9483841341948	864.9171067712831	0.0	1035.2857081080138	899.416747129178	0.0	1049.9529284923258	892.4302656810127	0.0	1017.6594994654124	877.2989924616351	0.0	952.8786762813228	444.87321678817096	0.0	962.5572079186743	364.6250993293212	0.0	977.6597549045525	409.57788582619906	0.0	899.0642324265667	465.47524891776237	0.0	823.5175233549307	490.26418841319077	0.0	800.1155916543931	426.3627720375866	0.0	1008.9357011278798	464.35433539480624	0.0	1082.5101595375188	482.41674523559175	0.0	1073.271333063519	411.2713440488551	0.0
826	16.52	952.5572196901863	619.0128433224058	0.0	918.9306105714768	631.8434706844035	0.0	888.6539447617408	766.6445703210081	0.0	870.260085620897	878.4388742130022	0.0	867.4302946367443	914.6022348721615	0.0	848.5939563085524	909.5223910181107	0.0	875.5153376967975	889.980677033019	0.0	984.5899152552073	633.5416302184516	0.0	1004.5679608719007	763.2839566118716	0.0	1022.9733270548088	864.8235002925961	0.0	1035.3350256452486	899.5400744262978	0.0	1050.0728656241974	892.3470699623474	0.0	1017.3180427520169	877.1662623327875	0.0	952.8280283821763	444.9540096833649	0.0	962.593261006585	364.55901980922005	0.0	977.8669909568657	409.67744149066647	0.0	898.92390467166	465.2429808825278	0.0	823.536904402791	490.4187675082465	0.0	800.1061876475309	426.43739685142555	0.0	1009.134250220115	464.4441255505479	0.0	1082.6351613596696	482.8739511942706	0.0	1073.7820759666456	411.203304671123	0.0
827	16.54	952.5055132713665	618.900025782312	0.0	918.8526175872503	631.6245960131771	0.0	888.719923639925	766.5133200844984	0.0	870.2068883385647	878.6651255203403	0.0	867.3104176375966	914.8532826746887	0.0	848.5298484147386	909.8485375324803	0.0	875.755286673808	890.3395918898814	0.0	984.8125852362963	633.3624359991063	0.0	1004.5068106317622	763.4929602892312	0.0	1023.0000269362504	864.6693053592703	0.0	1035.5784181082572	899.5313836435472	0.0	1050.2777092585302	892.199014561066	0.0	1016.9217075624564	877.0314089356293	0.0	952.9191235896711	444.9120956821699	0.0	962.550575130427	364.4173321455511	0.0	978.1168497769679	409.6455720110099	0.0	898.8267660788465	465.0514303666013	0.0	823.6550025669167	490.5291716949683	0.0	800.1994591797321	426.4602945663321	0.0	1009.2724276444436	464.41473622917385	0.0	1082.8305038127207	483.1848709397929	0.0	1074.715212621878	411.150077667878	0.0
828	16.56	952.3358191804568	618.965983572438	0.0	918.7108599909558	631.5510903245147	0.0	888.8163237561502	766.4032702789292	0.0	870.0554890734209	878.9291684153658	0.0	867.2107416228475	915.0415733175298	0.0	848.5425129102584	910.1988421410506	0.0	875.8904286805806	890.6694404132458	0.0	985.0726383440647	633.2934483987747	0.0	1004.3518106853107	763.6409353314646	0.0	1023.0995494567754	864.6177464924338	0.0	1035.9269995535449	899.4794610223032	0.0	1050.5291909238747	892.1687489684183	0.0	1016.6673474471645	877.109845549593	0.0	953.1198114801944	444.8077062168685	0.0	962.4303500728354	364.2555237091265	0.0	978.3679050453804	409.5371645982527	0.0	898.832846390102	464.9738207255516	0.0	823.8459371133379	490.6553268859412	0.0	800.3020708419097	426.534502587576	0.0	1009.2900815915945	464.2906520093468	0.0	1083.0429590188812	483.3446976014801	0.0	1075.7520431234584	411.22854501824605	0.0
829	16.580000000000002	952.1324157353705	619.2916155683921	0.0	918.5863646947464	631.6947469256531	0.0	888.9968086884506	766.4128400344364	0.0	869.900561317873	879.1084874089247	0.0	867.249219874941	915.0725599260061	0.0	848.6763456972778	910.4525458461509	0.0	875.8317819174167	890.8784904034865	0.0	985.3149098607125	633.4307156055401	0.0	1004.1786219304314	763.7196787828343	0.0	1023.329223354916	864.8326730688184	0.0	1036.1931866274967	899.4831684393562	0.0	1050.7346225922804	892.3345161845332	0.0	1016.6831587848756	877.5202633228137	0.0	953.3500792769405	444.6943502865936	0.0	962.2681354286776	364.09977804635287	0.0	978.5396391954135	409.4159702997471	0.0	898.9899342871176	465.04041396833526	0.0	824.0724427649382	490.83421746904327	0.0	800.3087906813275	426.73314217231655	0.0	1009.2273686216384	464.1767971702506	0.0	1083.2333933608265	483.43974919612936	0.0	1076.7879754019248	411.590983529458	0.0
830	16.6	951.972378793151	619.7766177653152	0.0	918.5684479201435	631.953946329478	0.0	889.2324471381658	766.531221637651	0.0	869.847012114454	879.1720071628049	0.0	867.4112940712616	914.9429087865374	0.0	848.8871403346149	910.5354913145384	0.0	875.5516215011294	890.9754491808808	0.0	985.4675429976213	633.6742516125594	0.0	1004.052962243075	763.7017578429025	0.0	1023.6369796066386	865.3195712135865	0.0	1036.268744862315	899.5869022512471	0.0	1050.7837926268662	892.6412082965819	0.0	1016.8939853853193	878.2055345760673	0.0	953.5316410720409	444.60308936348736	0.0	962.0835827726115	363.954913306836	0.0	978.5439305725818	409.33687462665023	0.0	899.2700338740874	465.2178729269531	0.0	824.3252027357995	491.1417759626129	0.0	800.1877035522461	427.05094883645256	0.0	1009.1631163862069	464.1208217797266	0.0	1083.379541974633	483.5660853410933	0.0	1077.9532334557764	412.3187130205609	0.0
831	16.62	951.9010079468794	620.1731784058494	0.0	918.6886451258401	632.1605465189563	0.0	889.4047623427327	766.6537603835003	0.0	869.9397414656243	879.1232120707666	0.0	867.548703347451	914.7445355049701	0.0	849.0453302451667	910.4720989273399	0.0	875.1644377245168	890.9966443864353	0.0	985.4850560256491	633.83750831324	0.0	1004.0103613100066	763.5718682960799	0.0	1023.875432904894	865.925033396209	0.0	1036.2191793283914	899.7417289962909	0.0	1050.6308201395632	892.9776411171005	0.0	1017.0799116654972	878.9528001586873	0.0	953.6284210995755	444.55215158893986	0.0	961.8537441524774	363.81401747692087	0.0	978.3565362155596	409.3446380123724	0.0	899.5738732314561	465.40779621381574	0.0	824.6174039637176	491.67422947784297	0.0	800.0169382490088	427.45769899738696	0.0	1009.1509986911774	464.08482433401355	0.0	1083.4344563427596	483.7971707792136	0.0	1079.4170484187266	413.3112140989733	0.0
832	16.64	951.9402231768083	620.3345523244453	0.0	918.8857470740352	632.2631233340802	0.0	889.413586663064	766.7529730119248	0.0	870.1229125402544	878.9889202588198	0.0	867.5137186818137	914.5819883690144	0.0	849.0415390205053	910.333311408318	0.0	874.8813793212207	890.9797376000977	0.0	985.3664412610013	633.8407401481594	0.0	1004.0712789096763	763.391079157511	0.0	1023.9341607939344	866.4500882851314	0.0	1036.186801198469	899.8159422951165	0.0	1050.3545539187403	893.219474674568	0.0	1017.0573268814389	879.4666033997669	0.0	953.6406905344163	444.5424982822377	0.0	961.5474627472689	363.6514771809101	0.0	978.065538975611	409.4474831153464	0.0	899.8215038709016	465.5095710642497	0.0	824.9174674136709	492.43198983097403	0.0	799.8790326436194	427.98167916251816	0.0	1009.2093533964188	464.0657272704671	0.0	1083.4013634193927	484.23977097076084	0.0	1081.1085399674344	414.3211716145229	0.0
